<svg width="317" height="64" viewBox="0 0 317 64" fill="none" xmlns="http://www.w3.org/2000/svg">
<path d="M0.746582 0V63.5301H317V0H0.746582ZM5.30026 59.0687V4.43676H312.446V59.0687H5.30026Z" fill="black"/>
<path d="M257.008 44.2817H254.873V48.3985H257.008V44.2817Z" fill="black"/>
<path d="M257.008 29.7095H254.873V33.8266H257.008V29.7095Z" fill="black"/>
<path d="M257.008 51.5674H254.873V55.6903H257.008V51.5674Z" fill="black"/>
<path d="M257.008 36.9833H254.873V41.1188H257.008V36.9833Z" fill="black"/>
<path d="M257.008 7.84583H254.873V11.9626H257.008V7.84583Z" fill="black"/>
<path d="M257.008 15.1379H254.873V19.2547H257.008V15.1379Z" fill="black"/>
<path d="M257.008 22.4055H254.873V26.5346H257.008V22.4055Z" fill="black"/>
<path d="M267.544 56.318C266.817 55.8872 266.651 54.9888 267.039 54.3242C267.039 54.3242 267.082 54.1581 267.193 53.8688V53.9427C267.697 53.1058 268.817 50.6751 269.433 47.2906H268.147C266.036 47.2906 264.251 45.4999 264.251 43.3584C264.251 41.1862 266.042 39.4139 268.147 39.4139C269.987 39.4139 271.599 40.6447 271.932 42.1462C271.993 42.3062 272.153 42.9031 272.221 43.0692L272.153 43.0138C272.313 43.8507 272.387 44.7491 272.387 45.506C272.313 50.6258 270.104 54.8411 269.593 55.7149L269.661 55.6718C269.273 56.2872 268.756 56.5518 268.257 56.5518C267.974 56.5518 267.747 56.4287 267.482 56.3241H267.544V56.318Z" fill="black"/>
<path d="M47.0952 27.1251H47.4583C47.4706 27.3713 47.5875 27.5559 47.7968 27.7159C48.0798 27.7159 48.3875 27.5928 48.6644 27.3897C48.8552 27.5374 49.0767 27.7036 49.3536 27.8267C49.489 27.7959 49.5936 27.7159 49.6921 27.5559L51.0028 28.0051H51.2674L51.4397 28.0728H51.7043C52.1043 28.6082 52.615 29.0697 53.255 29.4574C53.3842 30.1158 53.6981 30.725 54.215 31.2604V31.605C53.6242 32.5465 53.6673 33.3773 54.3811 34.0973V34.6326C53.8519 34.8173 53.7288 35.3526 54.0119 36.2695L54.4734 36.4357C54.2827 36.9403 54.3258 37.4572 54.5473 37.9864C54.3934 38.3987 54.3503 38.8479 54.375 39.3648L54.2765 39.5494V39.7956C54.375 40.011 54.535 40.1833 54.8057 40.3002L55.1503 41.094C54.8488 40.9463 54.6765 41.0202 54.6334 41.3586C54.7811 41.3586 54.9842 41.414 55.2303 41.5371H55.4949L55.858 41.6171C56.3195 40.6509 57.0949 40.3063 58.1718 40.6633V41.1802L57.581 41.4509C57.4887 41.8879 57.4887 42.4109 57.581 42.9955C57.3226 43.1248 57.0887 43.3278 56.8857 43.5986C56.5657 43.537 56.2395 43.4263 55.9257 43.2478C55.7226 43.5124 55.3965 43.697 54.9842 43.7709C54.6334 43.3647 54.1719 43.2601 53.5996 43.5124C53.1135 42.9955 52.4796 42.7124 51.7043 42.6694C51.1874 43.0632 50.5536 43.254 49.7844 43.254C49.5628 43.4263 49.3844 43.654 49.2736 43.937L48.6644 43.8632H48.3875L48.1414 44.2016C46.6276 44.5462 45.083 44.4601 43.4892 43.9309L42.9538 43.1494L42.8677 42.9955C41.9385 42.8601 41.4462 42.2632 41.3908 41.1802C40.6893 40.3802 40.5416 39.4325 40.9662 38.3495L40.8062 37.4879C41.2185 37.1987 41.5262 36.7495 41.7477 36.2018C42.0431 35.9003 42.4492 35.6665 42.96 35.5003C43.5015 34.7065 44.4861 34.2942 45.9137 34.2942C45.9568 34.405 46.0553 34.4911 46.166 34.5526C46.4429 34.2696 46.7383 33.9803 47.1075 33.6911C47.2798 33.9557 47.5075 34.1404 47.8091 34.2942C48.3013 33.6419 49.1321 33.3588 50.3382 33.4265C50.4489 33.1681 50.4797 32.8788 50.4182 32.565C50.7136 32.4604 50.972 32.2573 51.1812 31.9619C50.9228 31.6419 50.8982 31.2481 51.1012 30.7558C50.4859 30.2143 49.7044 29.882 48.7813 29.7281C48.2213 29.0943 47.686 29.1558 47.2122 29.9004C46.4491 29.2174 45.963 29.1928 45.7291 29.8143C45.003 29.9804 44.9168 30.5035 45.4953 31.3589C45.0153 31.7589 44.7199 32.3127 44.5169 32.9835L44.0861 33.2665C43.7107 33.2234 43.28 33.2788 42.8123 33.4204C42.64 33.3342 42.4185 33.2542 42.1108 33.1742C41.9139 32.9465 41.7846 32.6327 41.7662 32.3065C40.8247 31.4881 40.8678 30.7804 41.8585 30.1466L41.6677 29.3712C42.1539 29.082 42.5908 28.6513 42.9785 28.079C43.3169 27.999 43.6923 27.8328 44.0923 27.562C44.3569 27.5928 44.6892 27.642 45.0584 27.722C45.4338 27.642 45.9322 27.5682 46.5291 27.562C46.6829 27.4759 46.886 27.3343 47.0952 27.1251ZM50.9043 36.0911C50.4859 36.0049 50.0674 36.0418 49.6121 36.1895C49.2736 36.048 48.9044 36.0234 48.4798 36.0911C48.1967 36.288 47.809 36.4172 47.3783 36.4295L47.0952 36.8603C46.4306 36.3187 45.9322 36.3618 45.6368 36.9526C44.9784 36.9157 44.5907 37.2172 44.4922 37.8941C44.0923 37.9987 43.8892 38.2633 43.9015 38.6756L44.0615 38.9402C43.4646 39.2479 43.4646 39.5987 44.0615 39.974C43.7784 40.8294 44.1353 41.2356 45.1138 41.1679C45.4153 41.6663 45.8891 41.8756 46.4983 41.7648C46.886 41.9432 47.1814 41.8571 47.3783 41.5248C47.8952 41.5679 48.369 41.4202 48.849 41.0817L49.6121 41.1679C49.6428 40.934 49.5998 40.7125 49.5382 40.4787C49.9813 40.2325 50.3751 39.8263 50.7382 39.2664C51.0089 39.211 51.2735 39.1064 51.532 38.9402L51.3351 38.4233C51.6982 37.7403 51.5628 37.211 50.9966 36.8603C51.3043 36.5834 51.3289 36.2757 51.0766 35.9188L50.9043 36.0911ZM45.6368 30.9281C45.9445 31.0512 45.9199 31.1435 45.5384 31.1989L45.6368 30.9281Z" fill="black"/>
<path d="M81.0818 27.6299C81.6479 28.1407 82.3802 28.4545 83.2417 28.5714C83.8078 29.0207 84.3863 28.9653 84.9401 28.4176C85.7401 28.713 86.3 28.4361 86.62 27.6238C87.0816 27.7469 87.5492 27.7469 88.0661 27.6238C88.3615 28.2638 88.903 28.7868 89.6661 29.1376C89.703 29.7099 89.8568 30.3006 90.1522 30.8975C89.9799 31.2237 90.0537 31.5437 90.3122 31.8513C90.1214 32.3744 90.146 32.9098 90.3922 33.4451C90.1953 33.8697 90.2445 34.3374 90.546 34.8727L90.3122 35.1127C90.2814 35.4758 90.3983 35.7835 90.706 36.0912C90.4845 36.7988 90.546 37.5803 90.8598 38.3865C90.7245 38.7557 90.6814 39.1803 90.706 39.6664L91.1122 39.9064C90.9275 40.0849 90.8291 40.3372 90.7799 40.6264C91.9244 41.0079 92.4967 41.8632 92.466 43.1924C91.666 44.1462 90.6506 44.4355 89.4138 44.0416C88.3923 44.3432 87.4323 44.1155 86.5462 43.3278L86.1277 43.7524C85.6354 43.7217 85.217 43.9063 84.8355 44.2939C84.3801 44.1647 83.8694 44.1955 83.334 44.3801C82.6633 44.1955 81.8756 44.134 80.9895 44.2139L80.8295 44.1339L80.2695 44.2139C80.0911 44.0909 79.8511 43.9493 79.5742 43.8263C79.0203 43.8817 78.4542 44.0478 77.8635 44.3801C77.2912 44.1955 76.6327 44.1401 75.8635 44.2139C75.5374 43.8878 75.082 43.6293 74.5036 43.4201L74.4236 43.254L74.1836 43.1063C74.3805 42.5956 74.7743 42.2017 75.3774 41.974C75.4574 41.7463 75.5866 41.5187 75.7897 41.2602C75.8328 41.0325 75.7958 40.7494 75.7035 40.4664C76.0727 39.611 76.1343 38.7188 75.9374 37.7526C76.0358 37.3404 76.0358 36.8911 75.9374 36.3865C75.9866 36.1342 76.1035 35.8635 76.3435 35.6112V35.2666L76.1897 34.7312L76.0912 34.0912L76.0297 33.9189C76.0297 33.882 75.9989 33.8143 75.9374 33.7651L76.0297 33.6113C76.3927 32.8974 76.4358 32.0729 76.1897 31.1129C76.4297 30.9406 76.5958 30.6821 76.6574 30.3191C76.362 30.1529 76.1466 29.8452 76.0297 29.3776C75.4943 29.316 75.1005 29.0883 74.8113 28.7253C75.1743 28.3007 75.6235 28.1284 76.1897 28.2453C76.8912 27.8638 77.525 28.1038 78.0296 28.9714C78.2573 28.8484 78.4727 28.9407 78.6573 29.2114C78.7065 28.916 78.8111 28.6207 78.9896 28.3438C79.7341 28.3499 80.4234 28.0976 81.0818 27.6299ZM80.1218 30.4975C79.8511 30.7683 79.6911 31.1683 79.6419 31.7098L79.3219 31.5375C78.368 32.6144 78.0788 33.4513 78.5157 34.0174C78.3804 34.6697 78.485 35.3527 78.8234 36.0912C78.3804 37.7896 78.608 38.6695 79.5803 38.7126C79.6418 39.328 79.3342 39.6295 78.6696 39.6664C78.768 40.011 79.0573 40.1833 79.5803 40.1464C79.4388 40.5956 79.5372 40.9648 79.8695 41.2602C80.3618 41.5002 80.528 41.3894 80.3618 40.9464C80.1157 40.6202 80.208 40.331 80.608 40.0787C80.9587 40.4848 81.3895 40.5525 81.8818 40.2941C81.8694 40.011 81.7402 39.6664 81.5618 39.2664C81.7956 38.8849 81.8448 38.4911 81.7464 38.0726C81.9741 37.6911 82.011 37.2357 81.7956 36.7188C82.5033 36.005 82.5033 35.1927 81.7956 34.3251V33.8451C82.4664 33.1867 82.4664 32.4667 81.7956 31.7098C81.8448 31.4206 81.8141 31.1252 81.7464 30.8175C81.2664 30.5775 80.731 30.4791 80.1218 30.4975ZM87.18 29.7714C86.9646 29.8822 86.7923 30.0975 86.6939 30.4114C86.3923 30.5098 86.0416 30.6637 85.6601 30.9037C85.5247 31.5683 85.1493 32.1529 84.5278 32.6513C84.4539 33.1744 84.6693 33.5374 85.1678 33.7774C85.1678 33.8943 85.2047 34.0236 85.2478 34.1589C84.6693 34.9158 84.6324 35.6973 85.0939 36.5588C84.6693 37.3034 84.8416 37.9373 85.5739 38.4849L85.0939 38.7988C85.2847 39.2664 85.2847 39.8079 85.0939 40.3864C86.4046 40.9833 87.1985 40.7495 87.4877 39.6726C87.7646 39.4572 87.9492 39.168 88.0661 38.7988C87.8077 38.7618 87.66 38.608 87.58 38.3311C88.0538 38.1096 88.1277 37.6973 87.82 37.125C88.3984 36.4665 88.5646 35.6296 88.2938 34.5712C88.4477 34.2328 88.4477 33.8512 88.2938 33.4513C88.5215 32.8851 88.3492 32.4728 87.82 32.1713V31.7775C88.5215 31.3775 88.5646 30.9837 87.98 30.5837C87.9369 30.1406 87.6723 29.8822 87.18 29.7714ZM85.5801 41.3525C85.6724 41.5433 85.7708 41.5433 85.9001 41.3525H85.5801ZM86.62 41.5187L86.2139 41.5987C86.4416 41.7956 86.5831 41.7587 86.62 41.5187Z" fill="black"/>
<path d="M101.032 27.7101C101.29 27.7593 101.548 27.8639 101.862 28.0239C102.576 27.7532 103.37 27.6855 104.25 27.7716L104.564 28.2701C105.222 28.1655 105.751 28.4178 106.151 29.0208C106.97 29.1623 107.493 29.6362 107.702 30.4854C107.979 30.5038 108.25 30.6084 108.545 30.8115C108.354 31.7161 108.576 32.4853 109.222 33.1253L109.382 34.356V34.6083L109.468 34.7621V35.039L109.708 35.119C109.431 35.7344 109.468 36.3559 109.776 36.9959C109.444 37.5128 109.277 38.1343 109.296 38.8727C109.081 39.1804 108.939 39.5312 108.884 39.9435C108.853 40.2327 108.773 40.528 108.619 40.8542C108.582 40.9403 108.57 41.0573 108.539 41.1742C108.145 41.6972 107.536 42.2449 106.724 42.8233C106.582 42.9833 106.391 43.1372 106.145 43.3033L105.887 43.6418C105.345 43.6787 104.785 43.9126 104.244 44.3802C103.991 44.3802 103.77 44.2941 103.592 44.1341C102.952 44.0172 102.281 44.0602 101.524 44.3002C101.284 44.2141 101.062 44.0295 100.859 43.8202C100.619 43.9495 100.318 44.0233 99.9547 44.0541L99.7024 43.4941C98.9824 43.3895 98.4409 42.9833 98.0471 42.2511L97.1486 41.6726C97.1425 41.2419 96.9579 40.8111 96.6379 40.3619L96.5579 39.3773C95.9364 38.4851 95.7702 37.4205 96.0595 36.1775L95.6533 35.519C96.0041 34.7498 96.1887 33.8083 96.2318 32.7191L96.8163 32.473C96.8163 31.9253 97.0625 31.4761 97.5486 31.1684C97.6286 30.633 97.8502 30.03 98.2071 29.3654C98.6009 29.2793 98.9517 29.0639 99.2963 28.6823C100.084 28.7316 100.669 28.3993 101.032 27.7101ZM101.93 30.0854C101.702 30.2392 101.499 30.4607 101.364 30.7315C100.016 31.0207 99.5178 31.4638 99.8686 32.0607C99.0378 32.2084 98.6255 32.8053 98.6255 33.876L97.9671 33.7037H97.7148C97.8009 33.9191 97.9609 34.1098 98.2132 34.2698L98.5332 35.439C98.3794 35.7467 98.004 36.0236 97.481 36.2328C97.5671 36.4667 97.7394 36.6513 97.9671 36.8174C98.0656 37.2174 98.2809 37.5989 98.6255 37.9681L98.5332 38.7004C98.7917 38.9404 99.1301 39.1373 99.5486 39.2973C99.567 39.7527 99.6778 40.2327 99.8686 40.7619C100.102 40.9096 100.392 41.0203 100.785 41.0757L100.865 41.2665C100.804 41.4142 100.773 41.5742 100.785 41.7588C101.062 41.9249 101.407 41.9619 101.77 41.8388L102.256 41.9249C103.075 42.1464 103.672 41.8942 104.004 41.1742C104.884 41.2296 105.351 40.805 105.401 39.8881C106.244 39.6973 106.385 39.2789 105.807 38.6389C106.871 38.0666 107.154 37.2236 106.631 36.0913C106.748 35.8636 106.816 35.5867 106.816 35.279C106.601 35.2606 106.342 35.2052 106.059 35.1252L106.459 34.4483C106.391 34.2329 106.256 34.0114 106.059 33.7837C106.108 33.3652 105.967 32.9837 105.647 32.6453C105.622 32.0299 105.327 31.5561 104.748 31.2546C104.299 30.5223 103.61 30.2392 102.662 30.4238C102.521 30.2023 102.256 30.1038 101.93 30.0854Z" fill="black"/>
<path d="M119.387 27.6299C119.941 28.1407 120.661 28.4545 121.541 28.5714C122.107 29.0207 122.686 28.9653 123.227 28.4176C124.021 28.713 124.587 28.4361 124.907 27.6238C125.369 27.7469 125.849 27.7469 126.36 27.6238C126.661 28.2638 127.178 28.7868 127.953 29.1376C127.997 29.7099 128.144 30.3006 128.433 30.8975C128.267 31.2237 128.323 31.5437 128.587 31.8513C128.403 32.3744 128.421 32.9098 128.692 33.4451C128.47 33.8697 128.532 34.3374 128.821 34.8727L128.581 35.1127C128.55 35.4758 128.692 35.7835 128.981 36.0912C128.76 36.7988 128.821 37.5803 129.141 38.3865C129.012 38.7557 128.95 39.1803 128.981 39.6664L129.387 39.9064C129.209 40.0849 129.098 40.3372 129.08 40.6264C130.218 41.0079 130.79 41.8632 130.76 43.1924C129.96 44.1462 128.944 44.4355 127.713 44.0416C126.68 44.3432 125.726 44.1155 124.827 43.3278L124.421 43.7524C123.935 43.7217 123.504 43.9063 123.147 44.2939C122.674 44.1647 122.181 44.1955 121.621 44.3801C120.944 44.1955 120.175 44.134 119.295 44.2139L119.141 44.1339L118.575 44.2139C118.378 44.0909 118.144 43.9493 117.843 43.8263C117.301 43.8817 116.748 44.0478 116.157 44.3801C115.597 44.1955 114.908 44.1401 114.169 44.2139C113.812 43.8878 113.375 43.6293 112.803 43.4201L112.723 43.254L112.471 43.1063C112.668 42.5956 113.068 42.2017 113.665 41.974C113.745 41.7463 113.892 41.5187 114.077 41.2602C114.12 41.0325 114.089 40.7494 114.003 40.4664C114.36 39.611 114.44 38.7188 114.249 37.7526C114.335 37.3404 114.335 36.8911 114.249 36.3865C114.292 36.1342 114.409 35.8635 114.631 35.6112V35.2666L114.471 34.7312L114.397 34.0912L114.317 33.9189C114.317 33.882 114.292 33.8143 114.243 33.7651L114.317 33.6113C114.686 32.8974 114.735 32.0729 114.465 31.1129C114.717 30.9406 114.871 30.6821 114.951 30.3191C114.668 30.1529 114.465 29.8452 114.317 29.3776C113.794 29.316 113.394 29.0883 113.105 28.7253C113.461 28.3007 113.923 28.1284 114.465 28.2453C115.191 27.8638 115.806 28.1038 116.323 28.9714C116.544 28.8484 116.754 28.9407 116.957 29.2114C117.006 28.916 117.104 28.6207 117.277 28.3438C118.009 28.3499 118.717 28.0976 119.387 27.6299ZM118.409 30.4975C118.144 30.7683 117.972 31.1683 117.96 31.7098L117.609 31.5375C116.655 32.6144 116.372 33.4513 116.797 34.0174C116.668 34.6697 116.772 35.3527 117.129 36.0912C116.668 37.7896 116.895 38.6695 117.855 38.7126C117.948 39.328 117.658 39.6295 116.981 39.6664C117.055 40.011 117.369 40.1833 117.855 40.1464C117.714 40.5956 117.831 40.9648 118.188 41.2602C118.655 41.5002 118.828 41.3894 118.655 40.9464C118.421 40.6202 118.508 40.331 118.908 40.0787C119.271 40.4848 119.707 40.5525 120.187 40.2941C120.157 40.011 120.058 39.6664 119.855 39.2664C120.101 38.8849 120.157 38.4911 120.027 38.0726C120.28 37.6911 120.292 37.2357 120.101 36.7188C120.791 36.005 120.791 35.1927 120.101 34.3251V33.8451C120.766 33.1867 120.766 32.4667 120.101 31.7098C120.151 31.4206 120.12 31.1252 120.027 30.8175C119.566 30.5775 119.031 30.4791 118.409 30.4975ZM125.474 29.7714C125.252 29.8822 125.086 30.0975 124.981 30.4114C124.667 30.5098 124.341 30.6637 123.947 30.9037C123.818 31.5683 123.449 32.1529 122.815 32.6513C122.76 33.1744 122.969 33.5374 123.461 33.7774C123.461 33.8943 123.492 34.0236 123.535 34.1589C122.975 34.9158 122.926 35.6973 123.394 36.5588C122.975 37.3034 123.141 37.9373 123.874 38.4849L123.394 38.7988C123.597 39.2664 123.597 39.8079 123.394 40.3864C124.717 40.9833 125.51 40.7495 125.781 39.6726C126.058 39.4572 126.255 39.168 126.366 38.7988C126.101 38.7618 125.947 38.608 125.867 38.3311C126.335 38.1096 126.409 37.6973 126.114 37.125C126.692 36.4665 126.852 35.6296 126.594 34.5712C126.753 34.2328 126.753 33.8512 126.594 33.4513C126.809 32.8851 126.655 32.4728 126.114 32.1713V31.7775C126.821 31.3775 126.858 30.9837 126.286 30.5837C126.224 30.1406 125.966 29.8822 125.474 29.7714ZM123.874 41.3525C123.972 41.5433 124.07 41.5433 124.194 41.3525H123.874ZM124.914 41.5187L124.514 41.5987C124.741 41.7956 124.883 41.7587 124.914 41.5187Z" fill="black"/>
<path d="M140.323 27.8269C141.03 27.8638 141.812 28.1223 142.655 28.5715L142.969 28.473L143.209 28.8976L143.947 29.0761L144.193 29.1622H144.698C144.981 29.7776 145.467 30.2699 146.169 30.6268L146.446 31.7837L146.526 32.0422C146.507 32.0852 146.532 32.1406 146.618 32.196V32.4421L146.692 33.0267L147.11 33.3467C147.215 33.9744 147.184 34.6082 147.024 35.2544L147.11 35.4882C146.513 35.7897 146.052 36.2882 145.689 36.9712C145.35 36.9343 145.024 36.7743 144.704 36.4666C144.335 36.5035 143.898 36.4728 143.393 36.3866L142.809 36.6451C142.421 36.6451 141.929 36.5589 141.332 36.3866H141.067H140.827C140.507 36.3866 140.15 36.4235 139.738 36.5589H139.166H138.766C138.378 36.4297 137.941 36.4051 137.437 36.4728C137.061 36.8974 136.821 37.4266 136.711 38.0358C137.08 38.6696 137.32 39.488 137.437 40.4972C137.941 40.6388 138.335 40.9157 138.6 41.3342L139.264 41.1742C139.997 42.1587 140.883 42.3187 141.898 41.6541C142.126 41.6541 142.378 41.7403 142.661 41.9003C143.073 41.4695 143.615 41.1373 144.279 40.9157C144.378 40.4234 144.649 39.9865 145.123 39.605C145.073 39.3712 144.999 39.0942 144.87 38.7865C145.43 38.8296 145.996 38.7065 146.624 38.4358L146.852 38.5219C146.938 38.7004 147.067 38.8973 147.27 39.0942C147.141 39.5188 147.141 39.9927 147.27 40.4911C146.741 40.848 146.304 41.3588 146.021 41.9741C145.972 41.9741 145.916 41.9864 145.867 42.0541C145.799 42.0357 145.75 42.0849 145.689 42.1464L145.449 42.2141C145.258 42.4603 145.141 42.7495 145.116 43.1249C144.907 43.3649 144.63 43.4079 144.273 43.3033C143.873 43.7526 143.295 44.0171 142.556 44.1217C142.058 44.4787 141.547 44.4787 140.987 44.1217C140.427 44.0417 139.83 44.1033 139.258 44.2694C138.821 43.8941 138.267 43.6418 137.584 43.5433C137.178 42.9156 136.575 42.3926 135.775 41.968C135.677 41.7403 135.492 41.5249 135.197 41.3157C135.092 40.9957 134.871 40.7311 134.544 40.5896C134.575 40.0727 134.44 39.5742 134.12 39.0819C134.108 38.5835 133.941 38.0481 133.634 37.5251C133.726 37.002 133.677 36.4482 133.461 35.8759C133.486 35.642 133.603 35.3959 133.781 35.1497C133.775 34.6882 133.868 34.1898 134.114 33.6667L133.948 33.156C134.384 32.7067 134.704 32.1406 134.858 31.4514C135.074 31.2606 135.197 31.0145 135.264 30.6945L135.529 30.4545L135.597 30.1961C135.818 30.0176 136.101 29.8884 136.452 29.7961L136.594 29.6422C136.667 29.3592 136.772 29.0515 136.92 28.7253C137.566 28.8053 138.212 28.6453 138.84 28.233C139.301 28.27 139.812 28.1346 140.323 27.8269ZM141.326 30.3807C140.913 30.436 140.569 30.6576 140.323 31.0452C139.578 30.3068 139.104 30.356 138.926 31.2052C138.292 31.1314 137.904 31.4268 137.763 32.116C137.344 32.3314 136.987 32.6821 136.704 33.1683C137.074 34.0544 137.763 34.1959 138.76 33.5929C139.104 33.8513 139.529 33.9067 139.984 33.7467C140.593 33.9805 141.283 33.9805 142.058 33.7467C142.077 33.4636 142.212 33.2052 142.476 33.0206C142.981 33.0021 143.227 33.2421 143.209 33.7467L143.713 33.6729C144.187 32.2945 143.824 31.5806 142.649 31.5376C142.323 30.8176 141.867 30.436 141.326 30.3807Z" fill="black"/>
<path d="M160.107 27.4515C160.501 27.63 160.969 27.6546 161.467 27.5315C161.67 27.6977 161.953 27.8146 162.31 27.87V28.4546C162.599 28.4669 162.852 28.3623 163.067 28.1161C163.356 28.4054 163.744 28.6823 164.249 28.953C164.335 29.2361 164.501 29.5561 164.753 29.8822V30.1345L164.913 30.2207L165.504 30.8053C165.184 31.2976 165.147 31.7775 165.424 32.3006C165.221 32.7867 165.332 33.2298 165.769 33.6421V34.0605C165.424 34.1959 165.184 34.4113 165.018 34.7374C165.295 34.9651 165.387 35.2974 165.258 35.7466C165.467 35.8882 165.627 36.1097 165.775 36.4235C165.498 36.5097 165.295 36.6943 165.19 37.0081L165.695 37.2481L165.775 37.925C165.559 38.245 165.51 38.6265 165.615 39.088L165.35 39.5926C165.522 39.808 165.775 40.005 166.107 40.1834C166.082 40.9957 166.581 41.4818 167.627 41.6972C167.664 42.3125 167.885 42.891 168.285 43.4448C167.744 43.7833 167.049 43.9802 166.205 44.0171C166.033 44.1463 165.805 44.2571 165.516 44.374C164.821 44.2202 164.046 44.1894 163.159 44.3002L162.587 44.0171C162.181 44.1217 161.713 44.1463 161.141 44.1217L160.809 43.8756C160.778 43.4756 160.63 43.1064 160.384 42.7741L160.476 42.2818C161.018 42.1526 161.381 41.7833 161.572 41.1926C161.966 41.3033 162.359 41.2295 162.753 41.0018C162.79 40.8357 162.79 40.6141 162.753 40.3434L162.833 39.8511C163.196 39.5188 163.289 39.0757 163.079 38.4973C163.319 38.4788 163.522 38.3373 163.664 38.0912C163.535 37.9127 163.344 37.7404 163.079 37.5804C163.332 37.205 163.301 36.7989 162.981 36.4112C163.092 36.0974 163.332 35.8574 163.664 35.6666C163.455 35.2666 163.344 34.8113 163.344 34.3128L163.079 33.8267L163.159 33.3098L163.418 32.7252L163.252 32.5467L162.827 32.2883C162.913 31.7899 162.766 31.2853 162.409 30.793C162.47 30.5284 162.458 30.2576 162.323 29.9561L161.732 30.1222C160.876 29.6422 160.101 29.8145 159.443 30.6145C158.753 30.8053 158.107 31.1991 157.517 31.8022L157.689 32.3868C157.006 32.2083 156.667 32.4914 156.68 33.2298C156.372 33.5129 156.132 33.9375 156.003 34.4913C155.609 34.4913 155.27 34.639 154.987 34.9713C155.141 35.2051 155.289 35.4943 155.424 35.8943C155.394 36.1589 155.277 36.4112 155.067 36.6451C155.338 37.322 155.375 38.0912 155.16 38.9342C155.332 39.1496 155.418 39.4142 155.418 39.7588C155.603 40.6511 156.206 41.2172 157.184 41.4264C157.646 42.0541 158.298 42.2264 159.129 41.9433L159.369 42.171C159.166 42.7987 158.747 42.9525 158.101 42.6879L157.855 42.9464C157.683 43.5556 157.227 43.8386 156.495 43.7833C155.898 44.2571 155.08 44.3186 154.058 43.9494C153.498 44.1648 152.871 44.1648 152.2 43.9494C151.406 44.2079 150.951 43.931 150.778 43.1064C150.871 42.1341 151.424 41.5249 152.471 41.2603L152.637 41.0018C152.489 40.4603 152.563 39.9003 152.803 39.3526C152.766 39.1742 152.766 38.9527 152.803 38.6696C152.667 38.5158 152.587 38.2881 152.557 38.005C152.877 37.6112 152.92 37.205 152.729 36.7312C153.135 36.3682 153.135 35.9805 152.729 35.5559C153.135 34.8113 153.135 34.0175 152.729 33.1375C152.883 32.676 152.938 32.1652 152.883 31.6299L152.987 30.6084L152.729 30.3684C152.827 30.1099 152.852 29.7653 152.803 29.3653L152.477 29.1253C151.911 29.1992 151.4 29.0392 150.957 28.6084C151.468 28.3069 152.058 28.2269 152.729 28.3684C153.504 27.9438 154.157 28.1285 154.655 28.9469C154.36 29.033 154.138 29.2299 153.984 29.5315C154.261 29.5561 154.612 29.5561 155 29.5315C155.08 29.7961 155.264 30.0238 155.51 30.2145C156.052 30.1653 156.507 29.9253 156.926 29.5315L157.523 29.3653C157.523 29.1992 157.547 29.033 157.609 28.8546C158.126 28.6761 158.661 28.35 159.203 27.8638C159.313 28.0423 159.51 28.2208 159.8 28.3684C159.596 28.0238 159.707 27.7161 160.107 27.4515ZM161.886 27.4515C162.273 27.63 162.741 27.6546 163.246 27.5315C163.442 27.6977 163.726 27.8146 164.082 27.87V28.4546C164.372 28.4669 164.606 28.3623 164.833 28.1161C165.129 28.4054 165.516 28.6823 166.009 28.953C166.101 29.2361 166.267 29.5561 166.525 29.8822V30.1345L166.679 30.2207L167.27 30.8053C166.95 31.2976 166.932 31.7775 167.19 32.3006C166.975 32.7867 167.098 33.2298 167.522 33.6421V34.0605C167.19 34.1959 166.944 34.4113 166.796 34.7374C167.067 34.9651 167.147 35.2974 167.036 35.7466C167.221 35.8882 167.399 36.1097 167.522 36.4235C167.258 36.5097 167.067 36.6943 166.944 37.0081L167.448 37.2481L167.522 37.925C167.332 38.245 167.27 38.6265 167.368 39.088L167.104 39.5926C167.276 39.808 167.516 40.005 167.855 40.1834C167.836 40.9957 168.341 41.4818 169.381 41.6972C169.412 42.3125 169.645 42.891 170.039 43.4448C169.492 43.7833 168.802 43.9802 167.953 44.0171C167.787 44.1463 167.565 44.2571 167.264 44.374C166.581 44.2202 165.787 44.1894 164.901 44.3002L164.335 44.0171C166.698 43.9371 167.608 43.8879 167.055 43.8694H167.258C168.045 43.7956 168.525 43.5187 168.667 43.0448L168.698 42.3925C167.713 42.011 167.024 41.408 166.667 40.5403C167.596 40.9157 167.479 40.8111 166.329 40.3126C166.562 39.7465 166.396 39.6604 165.842 40.0727L165.922 39.5803C166.304 39.248 166.384 38.805 166.181 38.2327C166.415 38.2081 166.605 38.085 166.747 37.8327C166.624 37.6481 166.421 37.482 166.181 37.322C166.421 36.9466 166.384 36.5651 166.089 36.1405C166.187 35.8513 166.415 35.5928 166.747 35.3897C166.532 35.0205 166.421 34.5528 166.421 34.0421L166.181 33.5559L166.261 33.0575L166.519 32.4668L166.347 32.276L165.922 32.0298C166.015 31.5191 165.412 31.1068 164.15 30.793C164.242 30.5284 164.199 30.2576 164.076 29.9561L163.486 30.1222C162.63 29.6422 162.027 29.3346 161.707 29.1684C160.507 29.4945 159.363 30.0053 158.237 30.713L158.403 31.3037C157.713 31.1191 157.381 31.5683 157.412 32.6391C157.775 33.2975 157.652 33.6667 157.061 33.7159C157.129 34.2082 157.018 34.6267 156.754 34.959C156.901 35.1928 157.024 35.482 157.178 35.882C157.16 36.1466 157.024 36.3989 156.827 36.6328C157.104 37.3097 157.129 38.0789 156.907 38.9219C157.104 39.1373 157.184 39.4019 157.184 39.7465C156.55 40.4234 157.129 40.9834 158.944 41.4141C159.418 42.0418 160.046 42.2141 160.889 41.931L161.129 42.1587C160.944 42.7864 160.513 42.9402 159.867 42.6756L159.603 42.9341C159.449 43.5433 158.993 43.8263 158.267 43.7709C157.658 44.2448 156.864 44.3063 155.818 43.9371C155.264 44.1525 155.892 44.1032 157.75 43.7709C158.2 43.6725 158.637 43.2541 159.135 42.5218C158.569 41.4449 157.646 40.8603 156.335 40.7126L156.163 40.0049C155.744 40.0357 155.652 39.765 155.904 39.2173C155.88 39.0327 155.88 38.8111 155.904 38.5404C155.75 38.3927 155.664 38.1466 155.652 37.845C155.966 37.4758 156.027 37.0574 155.812 36.6081C156.218 36.2389 156.218 35.8389 155.812 35.439C156.218 34.6944 156.218 33.8759 155.812 33.0021C155.978 32.5344 156.046 32.0421 155.978 31.4883L156.07 30.4914L155.812 30.2453C155.929 29.9745 155.947 29.6422 155.904 29.2299L155.56 28.9899C154.987 29.0761 154.489 28.9284 154.046 28.4854C154.557 28.1838 155.147 28.11 155.812 28.2454C156.606 27.8269 156.797 28.0423 156.403 28.9284C156.101 29.0146 156.341 29.1807 157.08 29.4084C156.47 29.513 156.354 29.5376 156.76 29.513C156.84 29.7776 157.012 30.0053 157.258 30.1961C157.787 30.1468 158.261 29.9068 158.68 29.513L159.276 29.3469C159.276 29.1807 159.276 29.0146 159.356 28.8361C159.873 28.6576 160.415 28.3315 160.956 27.8454C161.067 28.0238 161.276 28.2023 161.547 28.35C161.369 28.0238 161.473 27.7161 161.886 27.4515ZM157.184 35.3405L157.683 35.5682L157.597 36.0851C157.166 35.9866 157.018 35.7282 157.184 35.3405ZM162.058 41.5372C162.101 41.8141 162.224 41.9187 162.47 41.8633C162.427 41.691 162.273 41.5679 162.058 41.5372Z" fill="black"/>
<path d="M177.823 22.3993C178.205 22.4731 178.617 22.6331 179.048 22.8916C178.986 23.2731 179.017 23.6854 179.134 24.1162L179.048 24.7561C179.257 24.7931 179.417 24.9223 179.546 25.0761C179.3 25.5992 179.3 26.1776 179.546 26.7868C179.472 27.0022 179.472 27.2299 179.546 27.5068C180.598 27.8637 181.226 27.8637 181.404 27.5068H181.811C182.315 28.0729 183.22 28.2329 184.506 28.0053C184.58 28.2699 184.783 28.5529 185.072 28.8175C185.072 29.316 184.949 29.8206 184.752 30.3683C184.518 30.3498 184.303 30.3867 184.1 30.5159C183.306 30.2759 182.512 30.3867 181.737 30.8421C180.801 30.8359 180.026 31.2544 179.38 32.1528C179.275 32.8851 179.435 33.5927 179.866 34.2389C179.694 34.7066 179.724 35.1681 179.946 35.6358C179.681 36.6203 179.817 37.6234 180.358 38.6326V39.2725L180.106 39.691H180.512C180.691 40.1587 181.066 40.4848 181.657 40.6509C181.601 40.8663 181.638 41.1186 181.737 41.3832C182.014 41.3402 182.235 41.1617 182.383 40.8971C183.694 40.7248 184.37 39.9802 184.414 38.6326L184.66 38.3926C185.373 38.2634 186.063 38.4541 186.709 38.9526C186.758 39.4264 186.709 39.9679 186.537 40.5648C186.592 40.7187 186.629 40.9402 186.629 41.2294C186.266 41.4694 186.112 41.8632 186.149 42.3678C185.767 42.5463 185.447 42.8232 185.158 43.2355C184.672 43.377 184.217 43.6232 183.774 43.9739C183.687 43.9924 183.601 44.0478 183.534 44.1462C183.183 44.0724 182.826 44.1339 182.475 44.3001C182.112 44.2447 181.681 44.2693 181.158 44.3862H180.937L180.691 44.3001C180.309 44.0724 179.872 43.9432 179.386 43.9001C179.109 43.6293 178.789 43.4078 178.395 43.2355C178.198 42.7863 177.823 42.2448 177.349 41.6294V41.3894C177.251 41.1679 177.066 40.9463 176.851 40.7309C176.925 40.3556 176.906 39.9679 176.765 39.5249V38.8849C176.869 38.6387 176.943 38.368 177.017 38.0603V37.8203L176.691 37.5619C176.906 37.088 176.906 36.5526 176.691 35.9557V34.9096L176.851 34.5712V34.085L176.592 33.7466L176.758 32.1528L176.845 31.9005L176.758 31.7405C176.014 30.8113 174.986 30.3498 173.663 30.3683C173.509 30.1467 173.288 29.9621 173.017 29.796L173.257 28.5837L174.414 28.2514C174.58 27.876 174.888 27.6976 175.392 27.6668C175.657 27.4145 176.051 27.2791 176.525 27.2791C176.703 26.713 176.703 26.0853 176.525 25.4207C176.654 25.0946 176.734 24.7192 176.765 24.2823L176.851 24.1285L176.937 23.8023C176.906 23.4762 176.851 23.107 176.765 22.7316C177.035 22.5962 177.398 22.4793 177.823 22.3993Z" fill="black"/>
<path d="M200.586 27.5559C201.097 27.8636 201.687 28.0236 202.37 28.0359L202.543 28.4482C204.069 28.522 204.899 29.4758 204.992 31.2973L204.659 31.6111C204.678 32.2696 204.346 32.8357 203.681 33.3342C202.266 33.4326 201.404 32.8726 201.072 31.6111C200.493 31.6665 200.081 31.4327 199.847 30.885C198.647 31.0696 197.964 31.4942 197.798 32.1834C197.269 32.3311 197.091 32.6511 197.238 33.168C196.771 33.3711 196.592 33.728 196.666 34.2264C196.327 34.3126 196.167 34.5403 196.18 34.9526C195.737 35.4756 195.737 36.0171 196.18 36.571C196.131 36.7863 195.964 36.934 195.681 37.0694C195.737 37.3094 195.915 37.5248 196.18 37.7032C195.977 38.8478 196.247 39.9616 196.998 41.0446C197.306 41.0139 197.675 41.0447 198.118 41.1431C198.241 41.3462 198.414 41.5431 198.617 41.7769C198.869 42.4292 198.869 43.1246 198.617 43.8876C198.161 44.0107 197.657 44.0107 197.066 43.8876L196.66 44.1338C195.78 43.8999 194.851 43.9615 193.872 44.3738H193.374H192.98L192.395 44.0476C190.315 43.9184 189.866 42.9708 191.029 41.217C191.497 41.3154 191.928 41.2169 192.328 40.8846H192.808C192.857 40.5216 193.011 40.177 193.306 39.8139L193.374 39.2478L193.22 39.0016L193.306 37.6971C193.318 37.5433 193.318 37.3279 193.306 37.0633L193.128 36.5648C193.263 36.2571 193.318 35.8695 193.306 35.4449V35.1064L193.22 34.6326L193.06 34.3003C193.091 34.0541 193.208 33.8142 193.38 33.5619C193.38 33.2234 193.312 32.8542 193.134 32.4296V32.1711L193.06 31.9988C193.134 31.8019 193.208 31.5065 193.22 31.1988C192.826 30.9342 192.309 30.7681 191.669 30.7127C191.478 30.3374 191.072 30.165 190.445 30.1527L190.032 29.9189L189.878 28.9343C190.285 28.122 190.851 27.8513 191.509 28.1159C191.792 27.6421 192.18 27.5805 192.721 27.882C193.238 27.599 193.706 27.7036 194.118 28.1159C194.34 27.9867 194.623 27.8513 194.937 27.7836C195.047 28.0051 195.201 28.2574 195.423 28.5282C195.909 28.4605 196.494 28.4789 197.232 28.6082C197.81 28.5405 198.414 28.2943 199.023 27.882C199.546 27.8944 200.063 27.7836 200.586 27.5559Z" fill="black"/>
<path d="M213.397 27.8269C214.117 27.8638 214.862 28.1223 215.717 28.5715L216.037 28.473L216.283 28.8976L217.022 29.0761L217.274 29.1622H217.785C218.05 29.7776 218.536 30.2699 219.25 30.6268L219.52 31.7837L219.582 32.0422C219.582 32.0852 219.613 32.1406 219.68 32.196V32.4421L219.754 33.0267L220.166 33.3467C220.277 33.9744 220.253 34.6082 220.074 35.2544L220.166 35.4882C219.582 35.7897 219.114 36.2882 218.757 36.9712C218.425 36.9343 218.099 36.7743 217.785 36.4666C217.397 36.5035 216.967 36.4728 216.45 36.3866L215.877 36.6451C215.484 36.6451 214.973 36.5589 214.388 36.3866H214.142H213.89C213.576 36.3866 213.225 36.4235 212.813 36.5589H212.241H211.828C211.434 36.4297 210.998 36.4051 210.499 36.4728C210.124 36.8974 209.878 37.4266 209.742 38.0358C210.118 38.6696 210.388 39.488 210.499 40.4972C210.998 40.6388 211.385 40.9157 211.656 41.3342L212.327 41.1742C213.065 42.1587 213.933 42.3187 214.954 41.6541C215.188 41.6541 215.428 41.7403 215.705 41.9003C216.148 41.4695 216.69 41.1373 217.342 40.9157C217.416 40.4234 217.687 39.9865 218.179 39.605C218.123 39.3712 218.05 39.0942 217.92 38.7865C218.474 38.8296 219.053 38.7065 219.668 38.4358L219.92 38.5219C219.97 38.7004 220.117 38.8973 220.326 39.0942C220.209 39.5188 220.209 39.9927 220.326 40.4911C219.797 40.848 219.379 41.3588 219.071 41.9741C219.034 41.9741 218.985 41.9864 218.905 42.0541C218.856 42.0357 218.806 42.0849 218.745 42.1464L218.511 42.2141C218.314 42.4603 218.21 42.7495 218.179 43.1249C217.957 43.3649 217.674 43.4079 217.342 43.3033C216.917 43.7526 216.351 44.0171 215.619 44.1217C215.114 44.4787 214.591 44.4787 214.031 44.1217C213.484 44.0417 212.899 44.1033 212.327 44.2694C211.877 43.8941 211.336 43.6418 210.665 43.5433C210.259 42.9156 209.631 42.3926 208.831 41.968C208.745 41.7403 208.555 41.5249 208.265 41.3157C208.167 40.9957 207.945 40.7311 207.625 40.5896C207.644 40.0727 207.508 39.5742 207.182 39.0819C207.176 38.5835 207.016 38.0481 206.702 37.5251C206.801 37.002 206.745 36.4482 206.536 35.8759C206.567 35.642 206.665 35.3959 206.856 35.1497C206.85 34.6882 206.955 34.1898 207.182 33.6667L207.028 33.156C207.471 32.7067 207.773 32.1406 207.945 31.4514C208.155 31.2606 208.278 31.0145 208.345 30.6945L208.598 30.4545L208.678 30.1961C208.899 30.0176 209.176 29.8884 209.508 29.7961L209.681 29.6422C209.736 29.3592 209.865 29.0515 210.007 28.7253C210.647 28.8053 211.287 28.6453 211.896 28.233C212.382 28.27 212.868 28.1346 213.397 27.8269ZM214.394 30.3807C213.964 30.436 213.644 30.6576 213.404 31.0452C212.653 30.3068 212.179 30.356 212.001 31.2052C211.354 31.1314 210.973 31.4268 210.844 32.116C210.407 32.3314 210.044 32.6821 209.754 33.1683C210.142 34.0544 210.844 34.1959 211.834 33.5929C212.173 33.8513 212.591 33.9067 213.065 33.7467C213.656 33.9805 214.339 33.9805 215.127 33.7467C215.139 33.4636 215.28 33.2052 215.551 33.0206C216.056 33.0021 216.29 33.2421 216.283 33.7467L216.776 33.6729C217.256 32.2945 216.905 31.5806 215.717 31.5376C215.385 30.8176 214.948 30.436 214.394 30.3807Z" fill="black"/>
<path d="M231.415 27.8269C232.129 27.8638 232.886 28.1223 233.741 28.5715L234.067 28.473L234.307 28.8976L235.046 29.0761L235.286 29.1622H235.803C236.067 29.7776 236.56 30.2699 237.273 30.6268L237.544 31.7837L237.606 32.0422C237.593 32.0852 237.636 32.1406 237.692 32.196V32.4421L237.772 33.0267L238.184 33.3467C238.295 33.9744 238.258 34.6082 238.104 35.2544L238.184 35.4882C237.587 35.7897 237.126 36.2882 236.775 36.9712C236.436 36.9343 236.104 36.7743 235.796 36.4666C235.421 36.5035 234.972 36.4728 234.455 36.3866L233.889 36.6451C233.495 36.6451 233.009 36.5589 232.387 36.3866H232.154H231.914C231.6 36.3866 231.237 36.4235 230.824 36.5589H230.258H229.852C229.458 36.4297 229.027 36.4051 228.504 36.4728C228.141 36.8974 227.895 37.4266 227.778 38.0358C228.148 38.6696 228.388 39.488 228.504 40.4972C229.027 40.6388 229.391 40.9157 229.674 41.3342L230.332 41.1742C231.07 42.1587 231.938 42.3187 232.953 41.6541C233.206 41.6541 233.464 41.7403 233.729 41.9003C234.153 41.4695 234.701 41.1373 235.36 40.9157C235.427 40.4234 235.71 39.9865 236.196 39.605C236.147 39.3712 236.073 39.0942 235.938 38.7865C236.498 38.8296 237.076 38.7065 237.686 38.4358L237.932 38.5219C237.993 38.7004 238.141 38.8973 238.344 39.0942C238.221 39.5188 238.221 39.9927 238.344 40.4911C237.796 40.848 237.396 41.3588 237.101 41.9741C237.039 41.9741 236.978 41.9864 236.935 42.0541C236.886 42.0357 236.824 42.0849 236.769 42.1464L236.529 42.2141C236.344 42.4603 236.233 42.7495 236.196 43.1249C235.987 43.3649 235.704 43.4079 235.36 43.3033C234.953 43.7526 234.369 44.0171 233.637 44.1217C233.126 44.4787 232.603 44.4787 232.055 44.1217C231.495 44.0417 230.917 44.1033 230.326 44.2694C229.895 43.8941 229.335 43.6418 228.664 43.5433C228.252 42.9156 227.649 42.3926 226.855 41.968C226.757 41.7403 226.554 41.5249 226.289 41.3157C226.166 40.9957 225.957 40.7311 225.631 40.5896C225.655 40.0727 225.526 39.5742 225.194 39.0819C225.181 38.5835 225.009 38.0481 224.714 37.5251C224.812 37.002 224.757 36.4482 224.542 35.8759C224.578 35.642 224.677 35.3959 224.874 35.1497C224.855 34.6882 224.96 34.1898 225.188 33.6667L225.015 33.156C225.465 32.7067 225.778 32.1406 225.951 31.4514C226.16 31.2606 226.283 31.0145 226.351 30.6945L226.609 30.4545L226.683 30.1961C226.898 30.0176 227.175 29.8884 227.514 29.7961L227.686 29.6422C227.741 29.3592 227.846 29.0515 228.006 28.7253C228.646 28.8053 229.28 28.6453 229.889 28.233C230.406 28.27 230.892 28.1346 231.415 27.8269ZM232.4 30.3807C232 30.436 231.655 30.6576 231.421 31.0452C230.671 30.3068 230.209 30.356 230.018 31.2052C229.384 31.1314 229.003 31.4268 228.861 32.116C228.431 32.3314 228.068 32.6821 227.797 33.1683C228.178 34.0544 228.867 34.1959 229.871 33.5929C230.209 33.8513 230.615 33.9067 231.095 33.7467C231.692 33.9805 232.387 33.9805 233.157 33.7467C233.175 33.4636 233.323 33.2052 233.581 33.0206C234.086 33.0021 234.332 33.2421 234.32 33.7467L234.818 33.6729C235.286 32.2945 234.947 31.5806 233.753 31.5376C233.397 30.8176 232.966 30.436 232.4 30.3807Z" fill="black"/>
<path d="M62.8181 21.0085H62.7196H62.9042H62.8181H62.9842H62.9042H63.0765H62.9904H63.0765L63.4888 21.347C63.7535 21.347 63.9811 21.267 64.1842 21.1009C64.7503 21.1993 65.3657 21.1562 66.0426 21.0085H66.3072C66.6272 21.6608 67.1626 22.1101 67.9318 22.3501C68.0241 22.707 67.9502 23.0516 67.7471 23.3531C67.9502 23.8454 67.9502 24.3746 67.7471 24.9407C67.8333 25.1315 67.9195 25.3407 67.9318 25.5992C67.741 25.7961 67.6302 26.0176 67.5933 26.2884C67.6979 26.4176 67.7841 26.5961 67.8333 26.7868L67.5195 27.7099L67.7471 27.8699C67.7902 28.1283 67.7779 28.4052 67.6795 28.7129C67.9318 29.1314 67.9995 29.5929 67.9318 30.1344L68.0917 30.9713C67.8271 31.7589 67.7964 32.6389 68.0179 33.5681C67.9994 33.8143 67.9133 34.0666 67.741 34.3189V34.6512C67.8148 35.0388 67.7841 35.4265 67.6733 35.8327L67.9256 36.165V37.2542V37.4941V37.7464L68.0179 37.9187V38.1649V38.4233V38.6633L68.0917 38.9341C67.9933 39.1002 67.9502 39.2848 68.0179 39.5064C67.9994 39.8141 68.1225 40.0971 68.344 40.3494L68.2702 40.614H68.1779H68.2702H68.1779C68.2517 40.7063 68.3687 40.7063 68.5225 40.614C69.2609 41.4509 69.3902 41.6417 70.5717 41.1986C71.0455 41.4078 71.6547 41.5371 72.3501 41.6048L72.6147 41.7832C72.8977 41.8817 73.1008 42.1155 73.1993 42.4417C72.75 42.3309 72.467 42.5032 72.3562 42.9463C73.8454 43.537 73.3039 43.9555 70.7378 44.1832H70.4732H70.2147H69.5378L69.2794 44.1154L68.5902 44.2816L67.741 44.3678C67.421 44.1831 67.0395 44.0539 66.5718 43.9555C66.1287 44.0847 65.6118 44.1277 65.0396 44.1216L64.775 44.2878L64.5103 44.3739C63.7288 43.9801 62.7566 43.8139 61.6181 43.8878C61.3105 43.8016 61.5074 43.777 61.0459 43.8016L60.6828 43.7032H60.1843C59.9874 43.4385 59.7413 43.217 59.4336 43.0324C59.5567 42.1709 60.0428 41.4509 60.8674 40.8417C61.1443 40.854 61.5074 40.9217 61.8889 41.0202C62.6335 40.8233 62.9165 40.7986 63.9196 40.9402H64.2826L64.5103 40.8417C64.5349 40.6387 64.4365 40.4171 64.2826 40.1894C64.5411 39.9925 64.818 39.7464 65.1257 39.4325C65.0088 39.0818 64.9903 38.6633 65.0457 38.171L65.1257 37.1865L65.1996 36.1711V35.5988L65.1257 35.2481C65.2057 34.9404 65.2672 34.5404 65.2919 34.0727L65.1257 33.7343L65.378 33.4758C65.2549 33.002 65.2549 32.4543 65.378 31.8082C65.2795 31.6359 65.2242 31.4205 65.1996 31.1559L65.378 30.4728C65.2611 30.1344 65.0457 29.8329 64.695 29.556L65.4642 28.8913C65.4026 28.6698 65.3165 28.4052 65.1996 28.1221L65.5503 27.6299C65.378 26.9345 65.3103 26.0914 65.378 25.1069C65.3165 24.9038 65.2549 24.6515 65.1257 24.35C64.9165 24.2269 64.6703 24.2084 64.3442 24.2761C63.9565 23.9131 63.6365 24.0054 63.3411 24.5223C62.9596 23.71 62.9596 23.4638 62.0366 23.7777C61.612 23.4946 61.9073 23.3531 61.2612 23.3531L60.8305 22.8608C60.9289 22.6393 60.9536 22.3808 60.9105 22.1101C61.132 21.8516 61.3597 21.5009 61.5258 21.1009C61.9258 21.1624 62.4366 21.1624 63.0581 21.1009L62.5596 21.1932C62.6827 21.4147 62.8796 21.5439 63.1565 21.5993L63.4888 21.1932L62.7319 21.0085H62.8181Z" fill="black"/>
<path d="M32.7633 26.1097C33.0648 26.2144 33.3602 26.4236 33.6494 26.7313C33.8709 26.7128 34.1355 26.7559 34.4617 26.8297C34.5355 27.0328 34.6463 27.2051 34.7817 27.3712C36.277 26.6451 37.2308 27.3036 37.7046 29.3466L38.3508 29.8819C38.3385 30.0788 38.3139 30.3127 38.2708 30.6081L38.5846 30.8481C38.5231 31.2911 38.3323 31.7096 38.0185 32.128L37.7785 32.7618L37.7108 33.0264C37.6431 33.0572 37.5939 33.1064 37.5508 33.2049C36.9785 33.3526 36.277 33.4203 35.4401 33.3834C35.157 32.208 34.7509 31.5003 34.2155 31.2234L34.3078 30.7004C34.7878 30.3927 35.0155 29.9189 35.034 29.2481C34.4186 29.1373 33.6986 29.1373 32.8556 29.2481H32.0371L31.631 29.5312H30.9787C30.6895 29.6542 30.4249 29.8635 30.1849 30.1404C28.9911 30.9773 28.3634 32.2326 28.3081 33.9064C27.8342 34.7249 27.7973 35.494 28.1358 36.2448C27.7112 37.7586 28.1604 38.9401 29.4219 39.7462C29.6434 40.3431 30.0926 40.5462 30.7264 40.3739C31.2372 41.4754 32.3448 41.7954 34.0432 41.3523C34.1109 41.0385 34.2894 40.7062 34.5417 40.3739C35.1817 40.4108 35.6309 40.0478 35.8401 39.297C36.3631 39.2847 36.7754 38.977 37.0524 38.3924H37.5447L37.7046 38.8601C38.1908 39.0509 38.5969 39.4078 38.9108 39.937C38.6708 40.14 38.4492 40.4293 38.2708 40.8231L38.1108 40.9215C37.9262 41.1185 37.7354 41.4139 37.5385 41.82C37.477 41.8261 37.4339 41.8877 37.3724 41.9984L36.8739 42.3492L36.4001 43.063L36.2462 43.3338L34.4555 44.0599H34.1971L33.8894 43.8938C33.7048 44.1153 33.4648 44.2322 33.1571 44.2322C33.0279 44.0538 32.831 43.943 32.591 43.8938C32.5171 44.0599 32.3633 44.3122 32.1787 44.5953H31.7787C31.391 44.2568 30.8987 44.1153 30.3141 44.1461L29.7603 43.5184C29.3788 43.4999 28.9234 43.3522 28.3819 43.1553C28.2957 42.9646 28.1542 42.7246 27.9635 42.4477L27.8896 42.2692C27.545 41.7831 27.0896 41.3646 26.5112 41.0139V40.1216C25.3789 39.1247 25.0712 37.5494 25.6312 35.3648L25.2866 35.0079C25.3297 34.6879 25.4343 34.3125 25.6312 33.931C25.5143 33.3587 25.5758 32.7741 25.8589 32.1465C25.9327 31.808 25.9635 31.4203 25.9328 30.965C26.3451 30.5404 26.745 29.9311 27.1573 29.1804C27.4527 29.0943 27.7481 28.9527 28.0496 28.725L28.3819 27.4943C29.0034 27.6235 29.5449 27.4205 29.9941 26.8482C30.4926 27.0266 30.8557 26.8482 31.0587 26.3128H31.5387C31.9264 26.3867 32.3325 26.319 32.7633 26.1097Z" fill="black"/>
</svg>
